HIERARCHY
ROOT hip
{
	OFFSET 0.000000 0.000000 0.000000 
	CHANNELS 6 Xposition Yposition Zposition Zrotation Xrotation Yrotation
	JOINT abdomen
	{
		OFFSET 0.000000 3.402643 0.000000 
		CHANNELS 3 Zrotation Xrotation Yrotation
		JOINT chest
		{
			OFFSET 0.000000 8.438565 -0.680529 
			CHANNELS 3 Zrotation Xrotation Yrotation
			JOINT neck
			{
				OFFSET 0.000000 10.207942 -0.272212 
				CHANNELS 3 Zrotation Xrotation Yrotation
				JOINT head
				{
					OFFSET 0.000000 3.130431 0.000000 
					CHANNELS 3 Zrotation Xrotation Yrotation
					End Site
					{
						OFFSET 0.000000 3.130435 0.000000 
					}
				}
			}
			JOINT lCollar
			{
				OFFSET 3.470700 6.669187 -0.816635 
				CHANNELS 3 Zrotation Xrotation Yrotation
				JOINT lShldr
				{
					OFFSET 3.198488 0.000000 0.000000 
					CHANNELS 3 Zrotation Xrotation Yrotation
					JOINT lForeArm
					{
						OFFSET 10.139888 0.000000 0.000000 
						CHANNELS 3 Zrotation Xrotation Yrotation
						JOINT lHand
						{
							OFFSET 8.370511 0.000000 0.000000 
							CHANNELS 3 Zrotation Xrotation Yrotation
							End Site
							{
								OFFSET 4.083176 0.000000 0.000000 
							}
						}
					}
				}
			}
			JOINT rCollar
			{
				OFFSET -3.470700 6.669187 -0.816635 
				CHANNELS 3 Zrotation Xrotation Yrotation
				JOINT rShldr
				{
					OFFSET -3.198488 0.000000 0.000000 
					CHANNELS 3 Zrotation Xrotation Yrotation
					JOINT rForeArm
					{
						OFFSET -10.139888 0.000000 0.000000 
						CHANNELS 3 Zrotation Xrotation Yrotation
						JOINT rHand
						{
							OFFSET -8.370511 0.000000 0.000000 
							CHANNELS 3 Zrotation Xrotation Yrotation
							End Site
							{
								OFFSET -4.083176 0.000000 0.000000 
							}
						}
					}
				}
			}
		}
	}
	JOINT lThigh
	{
		OFFSET 5.308129 -1.633274 1.361059 
		CHANNELS 3 Zrotation Xrotation Yrotation
		JOINT lShin
		{
			OFFSET -2.041588 -20.007561 0.000000 
			CHANNELS 3 Zrotation Xrotation Yrotation
			JOINT lFoot
			{
				OFFSET 0.000000 -19.190928 -1.224953 
				CHANNELS 3 Zrotation Xrotation Yrotation
				End Site
				{
					OFFSET 0.000000 -2.449906 4.627600 
				}
			}
		}
	}
	JOINT rThigh
	{
		OFFSET -5.308129 -1.633274 1.361059 
		CHANNELS 3 Zrotation Xrotation Yrotation
		JOINT rShin
		{
			OFFSET 2.041588 -20.007561 0.000000 
			CHANNELS 3 Zrotation Xrotation Yrotation
			JOINT rFoot
			{
				OFFSET 0.000000 -19.190928 -1.224953 
				CHANNELS 3 Zrotation Xrotation Yrotation
				End Site
				{
					OFFSET 0.000000 -2.449906 4.627600 
				}
			}
		}
	}
}
MOTION
Frames: 16
Frame Time: 0.033333
0.399664 42.578434 1.235254 -0.058594 -0.175783 -0.097836 -1.458482 3.914752 -2.166030 -1.397112 1.718240 -1.315528 -4.180039 29.894949 4.038669 5.924816 -43.323334 1.251252 -4.625554 -0.270460 0.807913 7.748202 -12.958571 -14.488055 -21.205009 -31.227440 -143.941467 54.269096 18.837973 -10.486351 5.159305 -1.520396 0.476754 -4.040731 -12.988242 0.140308 -23.006701 -50.922565 107.832138 -71.144058 -7.009488 -8.528980 4.032439 -24.747850 2.328156 -6.253329 54.165737 0.441650 1.538686 -29.686798 1.525990 -6.770527 -24.850277 -3.334648 4.839910 54.445202 -0.107507 0.305009 -29.830389 -0.790196 
0.850032 42.094414 1.134630 -0.058594 -0.175783 -0.097836 -2.270406 3.727549 -2.723829 -2.530434 1.717071 -1.281551 -5.937917 29.876438 4.879908 3.760638 -43.551579 -0.219437 -4.840572 -0.292899 0.690892 7.901087 -13.046260 -14.613784 -21.130619 -31.184689 -144.017151 25.639156 21.629675 6.808794 5.558911 -1.629285 0.418124 -3.248563 -13.056428 -0.330818 -23.214636 -50.564220 106.760338 -41.855045 -19.932493 -8.617687 3.399287 -25.995008 2.329136 -6.525660 56.475567 0.562358 2.493554 -30.676386 2.214781 -7.711313 -26.076740 -3.572196 5.083643 56.775154 -0.245044 1.037287 -30.941288 -0.306687 
1.355740 41.522438 0.992967 -0.058594 -0.175783 -0.097836 -2.837602 3.589354 -3.113704 -3.517045 1.627790 -1.315984 -7.269919 29.887684 5.198713 -0.799423 -43.883911 -3.347250 -4.772362 -0.296964 0.642308 7.953103 -13.107783 -14.697873 -21.047203 -31.167494 -144.119385 -0.926389 22.916481 22.911692 5.987640 -1.700629 0.369234 -2.381342 -13.143349 -0.852416 -23.415548 -50.219936 105.927635 -10.937461 -30.996292 -10.022779 2.695393 -27.441830 2.304774 -6.874207 59.040398 0.826159 3.534303 -31.796104 2.893346 -8.794958 -27.554043 -3.195247 5.455167 59.520191 -0.716074 2.451167 -32.101490 0.176935 
1.799726 41.098232 0.874783 -0.048828 -0.175800 -0.097806 -3.228753 3.519807 -3.336722 -4.347214 1.509318 -1.359885 -8.050697 29.910357 5.156248 -5.503973 -44.018055 -6.614597 -4.518410 -0.303156 0.632804 8.013972 -13.153854 -14.760969 -20.940723 -31.139391 -144.267670 -18.730473 22.922419 33.716328 6.327848 -1.733158 0.310739 -1.643862 -13.229378 -1.294115 -23.578318 -49.956409 105.431992 12.038750 -38.052670 -12.358935 2.043951 -28.530401 2.217180 -7.312969 61.144070 1.045022 4.586651 -32.619804 3.792106 -9.726816 -28.670145 -3.539045 5.737150 61.605328 -0.903968 3.250961 -33.111721 0.854831 
2.087469 41.004318 0.830872 -0.048828 -0.166012 -0.088032 -3.502779 3.538319 -3.416366 -5.011330 1.430061 -1.359842 -8.165467 29.932436 4.847167 -8.448416 -43.925861 -8.666183 -4.196114 -0.300365 0.642817 8.146928 -13.185761 -14.823224 -20.768909 -31.110668 -144.402542 -22.763659 23.119844 36.094131 6.482780 -1.707431 0.271811 -1.187062 -13.267054 -1.555192 -23.653255 -49.839466 105.374069 21.339169 -39.584038 -13.537625 1.603548 -28.784571 2.198497 -7.289950 61.571011 1.084440 5.079030 -32.907463 4.069177 -10.267152 -28.946280 -3.708896 5.811089 62.109524 -0.889726 3.764961 -33.246719 1.222083 
2.214605 41.210415 0.857132 -0.048828 -0.166012 -0.088032 -3.649892 3.625465 -3.362642 -5.499648 1.380341 -1.332890 -7.682007 29.961546 4.322621 -9.595652 -43.766510 -9.464128 -3.854461 -0.278370 0.662569 8.342628 -13.211132 -14.875051 -20.589705 -31.086382 -144.556946 -14.571172 23.971817 30.979988 6.491388 -1.642334 0.242680 -1.010447 -13.276031 -1.635517 -23.635466 -49.864193 105.714394 18.890139 -36.279236 -12.779750 1.342023 -28.347679 2.097530 -7.213843 60.635555 1.161895 5.085410 -32.444206 3.969115 -10.406930 -28.442394 -3.658832 5.685764 61.106308 -0.836070 3.970930 -32.787430 1.343981 
2.199311 41.633015 0.935740 -0.048828 -0.175800 -0.097806 -3.689601 3.761739 -3.205492 -5.792676 1.369927 -1.277055 -6.656025 29.988214 3.591019 -9.328054 -43.622860 -9.269273 -3.522539 -0.257465 0.692059 8.552278 -13.230000 -14.916430 -20.449306 -31.060322 -144.680542 2.698197 24.637829 20.427177 6.363203 -1.538697 0.213600 -1.074195 -13.256887 -1.575189 -23.563196 -50.007866 106.351273 7.113269 -29.430946 -11.080053 1.283970 -27.249662 2.101492 -6.761715 58.467987 0.764814 5.009406 -31.310854 3.859054 -10.206547 -27.402359 -4.004406 5.358140 59.159134 -0.297886 3.537339 -31.917173 1.200079 
2.059769 42.188629 1.048868 -0.058594 -0.175783 -0.097836 -3.641419 3.937379 -2.982663 -5.870848 1.379451 -1.205827 -5.178435 30.015575 2.683627 -8.049386 -43.495945 -8.392670 -3.239433 -0.236173 0.731258 8.742709 -13.238839 -14.927030 -20.336157 -31.062206 -144.737823 25.515272 24.108261 6.682180 6.137920 -1.423393 0.203965 -1.314764 -13.209113 -1.394319 -23.447563 -50.244202 107.203377 -11.635259 -20.359047 -9.568503 1.398966 -25.838366 2.159451 -6.266422 55.989597 0.322575 4.657924 -30.256176 3.517167 -9.753735 -26.002602 -3.988120 5.009037 56.459507 -0.037417 3.194527 -30.537498 1.049659 
1.814153 42.793751 1.178691 -0.058594 -0.175783 -0.097836 -3.485552 4.113492 -2.698885 -5.734160 1.408937 -1.128067 -3.316611 30.026720 1.621974 -6.159315 -43.379295 -7.091317 -3.034437 -0.216641 0.780164 8.865419 -13.227629 -14.916277 -20.326645 -31.084597 -144.724838 49.974754 22.078316 -7.808217 5.854013 -1.288673 0.194340 -1.705476 -13.151767 -1.143273 -23.292078 -50.535042 108.214966 -34.321678 -10.262733 -8.843636 1.669367 -24.233377 2.192849 -5.847244 53.043007 0.133234 3.978384 -29.008245 2.870241 -9.113292 -24.471550 -2.704371 4.949801 53.534145 -0.382204 3.342410 -29.338545 0.404091 
1.480643 43.364883 1.307384 -0.058594 -0.175783 -0.097836 -3.251307 4.289987 -2.403565 -5.353301 1.458459 -1.065452 -1.161769 30.024193 0.415353 -4.027009 -43.298424 -5.635720 -2.946543 -0.208197 0.819230 8.876763 -13.195204 -14.864004 -20.444029 -31.142776 -144.605316 72.438393 19.115311 -20.982548 5.550654 -1.163696 0.184716 -2.182861 -13.084574 -0.842180 -23.123957 -50.868038 109.277878 -57.345760 -0.315464 -8.927958 2.096877 -22.806692 2.111935 -5.696064 50.380688 0.056439 3.343328 -27.687002 2.371232 -8.361494 -23.002388 -3.316942 4.536253 50.833817 0.088429 2.374971 -28.069349 0.347819 
1.077416 43.818531 1.417121 -0.058594 -0.175783 -0.097836 -2.928671 4.427829 -2.107686 -4.728226 1.518255 -1.007252 1.217682 29.984629 -0.901596 -2.038580 -43.263134 -4.288079 -3.004951 -0.211598 0.867951 8.747304 -13.141488 -14.770260 -20.710302 -31.266106 -144.361755 89.983124 16.203712 -31.321276 5.257309 -1.048354 0.184797 -2.724913 -13.026821 -0.521227 -22.945564 -51.205997 110.317337 -77.180061 8.122571 -9.481737 2.657226 -21.660486 2.138667 -5.495415 48.260197 -0.133716 2.581026 -26.737682 1.970806 -7.555453 -21.826349 -2.148865 4.606531 48.562981 -0.211036 2.020082 -27.231155 -0.619151 
0.622648 44.071201 1.490078 -0.058594 -0.175783 -0.097836 -2.537217 4.526829 -1.850829 -3.839368 1.588231 -0.996944 3.730428 29.927887 -2.312344 -0.564028 -43.348202 -3.297403 -3.258540 -0.226879 0.906748 8.423370 -13.065162 -14.614934 -21.190969 -31.452751 -143.964981 100.188255 14.262539 -37.491276 5.013053 -0.960354 0.194593 -3.272132 -12.968658 -0.220467 -22.779541 -51.505417 111.263268 -90.552513 13.387656 -10.059350 3.335647 -21.015265 2.127572 -5.450936 47.111847 0.074852 1.580409 -26.237751 1.205891 -6.722547 -21.157349 -2.060633 4.309948 47.327164 -0.054495 1.306559 -26.577909 -1.013390 
0.134523 44.039375 1.508429 -0.058594 -0.175783 -0.097836 -2.076854 4.547806 -1.652012 -2.667134 1.658362 -1.016508 6.319642 29.849009 -3.798611 -0.000000 -43.613258 -2.919922 -3.726576 -0.266680 0.945273 7.863203 -12.965373 -14.408157 -21.889341 -31.717577 -143.402405 100.761978 14.030313 -38.075954 4.846993 -0.900644 0.204372 -3.770329 -12.929687 0.040080 -22.648798 -51.740414 112.010910 -94.476036 13.675146 -10.213697 4.142121 -21.054939 2.195095 -5.461172 47.213940 -0.064857 0.776656 -26.325264 1.004357 -5.917198 -21.188654 -2.399239 4.366639 47.490696 -0.099511 0.316635 -26.678347 -1.134544 
-0.365232 43.675488 1.461043 -0.058594 -0.175783 -0.097836 -1.547700 4.480790 -1.529710 -1.231022 1.718356 -1.095893 8.861180 29.751522 -5.332059 -0.584752 -44.100052 -3.317172 -4.409122 -0.328273 0.973692 7.070469 -12.825500 -14.149147 -22.834457 -32.112930 -142.702209 90.069611 15.807602 -32.079529 4.778751 -0.890303 0.214118 -4.198801 -12.910070 0.220416 -22.590300 -51.873882 112.497810 -86.934830 7.970809 -9.858401 5.063385 -21.955566 2.354525 -5.638794 49.019257 0.049356 0.391484 -27.327749 0.552791 -5.183642 -22.067650 -1.941693 4.585900 49.143700 -0.212637 -0.518691 -27.334957 -1.950477 
-0.840661 43.075573 1.363572 -0.058594 -0.175783 -0.097836 -0.979403 4.364597 -1.439295 0.332187 1.757784 -1.221070 11.209717 29.650145 -6.789195 -2.157859 -44.715981 -4.419010 -5.198818 -0.403699 1.001745 6.130728 -12.679980 -13.850123 -23.938782 -32.601837 -141.932465 70.502243 18.876965 -20.974316 4.788935 -0.918755 0.233582 -4.560324 -12.909934 0.350661 -22.557713 -51.922989 112.749496 -70.435509 -1.885271 -9.375815 6.048519 -23.466341 2.624492 -5.924291 51.965294 0.174095 -0.174060 -28.750055 0.176130 -4.537670 -23.558647 -2.266055 4.651859 52.012669 -0.223318 -1.179616 -28.798584 -2.281568 
-1.252259 42.371590 1.238364 -0.058594 -0.175783 -0.097836 -0.362314 4.228430 -1.360004 1.866112 1.756882 -1.365501 13.174720 29.554661 -8.039465 -4.364404 -45.336739 -5.988535 -5.900676 -0.475569 1.019985 5.202194 -12.542205 -13.572034 -25.076168 -33.148487 -141.178726 45.689590 22.049795 -6.761605 4.848016 -0.955936 0.253028 -4.869895 -12.919460 0.450866 -22.562960 -51.903755 112.806496 -48.824169 -13.364487 -9.285002 6.986852 -25.232889 2.943285 -6.440544 55.333744 0.595586 -0.846248 -30.132601 -0.359105 -3.996717 -25.318386 -1.982661 5.021625 55.364616 -0.432703 -1.787084 -30.505655 -3.008382 
